<?xml version="1.0" encoding="UTF-8"?>
<svg xmlns="http://www.w3.org/2000/svg" xmlns:xlink="http://www.w3.org/1999/xlink" width="32px" height="32px" viewBox="0 0 32 32" version="1.1">
<g id="surface1">
<path style=" stroke:none;fill-rule:nonzero;fill:rgb(99.607843%,99.607843%,99.607843%);fill-opacity:1;" d="M 0 0 C 10.558594 0 21.121094 0 32 0 C 32 10.558594 32 21.121094 32 32 C 21.441406 32 10.878906 32 0 32 C 0 21.441406 0 10.878906 0 0 Z M 0 0 "/>
<path style=" stroke:none;fill-rule:nonzero;fill:rgb(41.568628%,80.784315%,40.000001%);fill-opacity:1;" d="M 22.351562 13.152344 C 22.632812 13.152344 22.910156 13.152344 23.199219 13.152344 C 23.207031 13.773438 23.210938 14.398438 23.214844 15.039062 C 23.304688 14.976562 23.304688 14.976562 23.390625 14.910156 C 23.660156 14.757812 23.996094 14.714844 24.300781 14.78125 C 24.363281 14.800781 24.421875 14.824219 24.480469 14.847656 C 24.496094 14.855469 24.515625 14.863281 24.53125 14.871094 C 24.832031 15.007812 25.050781 15.273438 25.167969 15.578125 C 25.28125 15.941406 25.265625 16.359375 25.105469 16.703125 C 25.070312 16.765625 25.035156 16.824219 24.992188 16.878906 C 24.980469 16.894531 24.972656 16.90625 24.960938 16.921875 C 24.773438 17.171875 24.496094 17.320312 24.191406 17.375 C 23.867188 17.402344 23.574219 17.347656 23.3125 17.148438 C 23.277344 17.117188 23.246094 17.089844 23.214844 17.054688 C 23.214844 17.046875 23.214844 17.035156 23.214844 17.023438 C 23.207031 17.023438 23.195312 17.023438 23.183594 17.023438 C 23.183594 17.117188 23.183594 17.214844 23.183594 17.3125 C 22.910156 17.3125 22.636719 17.3125 22.351562 17.3125 C 22.351562 15.9375 22.351562 14.566406 22.351562 13.152344 Z M 22.351562 13.152344 "/>
<path style=" stroke:none;fill-rule:nonzero;fill:rgb(19.607843%,69.411767%,56.078434%);fill-opacity:1;" d="M 12.976562 14.765625 C 12.992188 14.765625 13.007812 14.765625 13.023438 14.765625 C 13.300781 14.769531 13.539062 14.839844 13.742188 15.039062 C 13.789062 15.089844 13.820312 15.132812 13.839844 15.199219 C 13.859375 15.183594 13.875 15.167969 13.894531 15.152344 C 13.90625 15.144531 13.917969 15.132812 13.929688 15.125 C 13.957031 15.097656 13.980469 15.074219 14.007812 15.050781 C 14.21875 14.84375 14.453125 14.761719 14.742188 14.761719 C 14.886719 14.765625 15.003906 14.792969 15.136719 14.847656 C 15.15625 14.855469 15.15625 14.855469 15.179688 14.863281 C 15.367188 14.945312 15.492188 15.085938 15.578125 15.265625 C 15.585938 15.285156 15.59375 15.308594 15.601562 15.328125 C 15.605469 15.339844 15.609375 15.351562 15.613281 15.367188 C 15.664062 15.554688 15.652344 15.75 15.652344 15.945312 C 15.652344 15.984375 15.652344 16.023438 15.652344 16.0625 C 15.652344 16.167969 15.652344 16.269531 15.652344 16.375 C 15.652344 16.496094 15.652344 16.621094 15.648438 16.746094 C 15.648438 16.933594 15.648438 17.125 15.648438 17.3125 C 15.363281 17.3125 15.078125 17.3125 14.785156 17.3125 C 14.785156 17.203125 14.78125 17.097656 14.78125 16.984375 C 14.78125 16.914062 14.78125 16.847656 14.78125 16.777344 C 14.78125 16.667969 14.777344 16.5625 14.777344 16.453125 C 14.777344 16.363281 14.777344 16.277344 14.777344 16.1875 C 14.777344 16.15625 14.777344 16.121094 14.777344 16.089844 C 14.777344 16.042969 14.777344 15.996094 14.773438 15.949219 C 14.773438 15.933594 14.773438 15.921875 14.773438 15.90625 C 14.773438 15.785156 14.75 15.667969 14.667969 15.578125 C 14.65625 15.566406 14.648438 15.558594 14.640625 15.546875 C 14.554688 15.472656 14.472656 15.464844 14.363281 15.464844 C 14.34375 15.464844 14.34375 15.464844 14.324219 15.460938 C 14.222656 15.460938 14.15625 15.488281 14.078125 15.550781 C 14.050781 15.582031 14.050781 15.582031 14.035156 15.613281 C 14.027344 15.625 14.023438 15.632812 14.015625 15.644531 C 13.972656 15.746094 13.964844 15.835938 13.964844 15.945312 C 13.960938 15.960938 13.960938 15.972656 13.960938 15.988281 C 13.960938 16.039062 13.960938 16.085938 13.960938 16.136719 C 13.960938 16.167969 13.960938 16.203125 13.960938 16.238281 C 13.960938 16.328125 13.957031 16.414062 13.957031 16.503906 C 13.957031 16.609375 13.957031 16.71875 13.957031 16.824219 C 13.953125 16.988281 13.953125 17.148438 13.953125 17.3125 C 13.671875 17.3125 13.390625 17.3125 13.105469 17.3125 C 13.101562 17.203125 13.101562 17.09375 13.101562 16.980469 C 13.101562 16.910156 13.101562 16.839844 13.101562 16.773438 C 13.101562 16.664062 13.097656 16.550781 13.097656 16.441406 C 13.097656 16.351562 13.097656 16.265625 13.097656 16.175781 C 13.097656 16.140625 13.097656 16.109375 13.097656 16.074219 C 13.097656 16.027344 13.09375 15.980469 13.09375 15.929688 C 13.09375 15.917969 13.09375 15.902344 13.09375 15.890625 C 13.09375 15.75 13.050781 15.648438 12.957031 15.546875 C 12.890625 15.488281 12.824219 15.464844 12.734375 15.457031 C 12.722656 15.453125 12.710938 15.453125 12.699219 15.453125 C 12.589844 15.445312 12.503906 15.46875 12.414062 15.535156 C 12.3125 15.652344 12.285156 15.773438 12.28125 15.929688 C 12.28125 15.949219 12.28125 15.949219 12.28125 15.972656 C 12.28125 16.023438 12.28125 16.070312 12.28125 16.121094 C 12.28125 16.15625 12.28125 16.191406 12.28125 16.222656 C 12.28125 16.3125 12.277344 16.40625 12.277344 16.496094 C 12.277344 16.601562 12.277344 16.710938 12.277344 16.820312 C 12.273438 16.984375 12.273438 17.148438 12.273438 17.3125 C 11.992188 17.3125 11.710938 17.3125 11.425781 17.3125 C 11.425781 16.492188 11.425781 15.675781 11.425781 14.832031 C 11.703125 14.832031 11.984375 14.832031 12.273438 14.832031 C 12.273438 14.917969 12.273438 15 12.273438 15.089844 C 12.320312 15.046875 12.320312 15.046875 12.371094 15.007812 C 12.550781 14.863281 12.742188 14.761719 12.976562 14.765625 Z M 12.976562 14.765625 "/>
<path style=" stroke:none;fill-rule:nonzero;fill:rgb(34.901962%,77.254903%,45.09804%);fill-opacity:1;" d="M 20.59375 14.847656 C 20.605469 14.855469 20.621094 14.859375 20.636719 14.867188 C 20.734375 14.910156 20.8125 14.972656 20.894531 15.039062 C 20.902344 14.9375 20.902344 14.9375 20.910156 14.832031 C 21.195312 14.832031 21.480469 14.832031 21.777344 14.832031 C 21.777344 15.652344 21.777344 16.46875 21.777344 17.3125 C 21.496094 17.3125 21.214844 17.3125 20.929688 17.3125 C 20.921875 17.222656 20.917969 17.132812 20.910156 17.039062 C 20.890625 17.0625 20.871094 17.082031 20.847656 17.105469 C 20.703125 17.234375 20.523438 17.316406 20.335938 17.359375 C 20.328125 17.363281 20.316406 17.367188 20.304688 17.367188 C 20.015625 17.433594 19.699219 17.355469 19.449219 17.203125 C 19.382812 17.15625 19.324219 17.097656 19.265625 17.039062 C 19.25 17.027344 19.25 17.027344 19.234375 17.011719 C 19.011719 16.808594 18.894531 16.480469 18.878906 16.183594 C 18.863281 15.773438 18.957031 15.433594 19.230469 15.121094 C 19.570312 14.757812 20.136719 14.644531 20.59375 14.847656 Z M 20.59375 14.847656 "/>
<path style=" stroke:none;fill-rule:nonzero;fill:rgb(10.588235%,64.705884%,62.352943%);fill-opacity:1;" d="M 10.570312 15.09375 C 10.789062 15.285156 10.9375 15.492188 11.007812 15.777344 C 11.011719 15.792969 11.011719 15.792969 11.019531 15.8125 C 11.105469 16.109375 11.011719 16.449219 10.875 16.714844 C 10.707031 17.003906 10.410156 17.214844 10.09375 17.304688 C 9.605469 17.433594 9.109375 17.410156 8.664062 17.15625 C 8.570312 17.097656 8.492188 17.023438 8.414062 16.945312 C 8.402344 16.929688 8.390625 16.917969 8.375 16.90625 C 8.152344 16.679688 8.078125 16.378906 8.078125 16.066406 C 8.078125 16.050781 8.078125 16.035156 8.078125 16.015625 C 8.074219 15.757812 8.15625 15.515625 8.320312 15.3125 C 8.332031 15.300781 8.339844 15.285156 8.351562 15.273438 C 8.539062 15.054688 8.792969 14.890625 9.070312 14.816406 C 9.082031 14.8125 9.09375 14.808594 9.105469 14.808594 C 9.585938 14.675781 10.183594 14.769531 10.570312 15.09375 Z M 10.570312 15.09375 "/>
<path style=" stroke:none;fill-rule:nonzero;fill:rgb(3.137255%,60.784316%,67.843139%);fill-opacity:1;" d="M 5.265625 13.152344 C 5.542969 13.152344 5.824219 13.152344 6.113281 13.152344 C 6.117188 13.984375 6.121094 14.820312 6.128906 15.679688 C 6.546875 15.273438 6.546875 15.273438 6.945312 14.847656 C 6.960938 14.832031 6.960938 14.832031 7.003906 14.828125 C 7.023438 14.832031 7.042969 14.832031 7.066406 14.832031 C 7.074219 14.832031 7.085938 14.832031 7.097656 14.832031 C 7.132812 14.832031 7.171875 14.832031 7.207031 14.832031 C 7.230469 14.832031 7.257812 14.832031 7.28125 14.832031 C 7.347656 14.832031 7.414062 14.832031 7.480469 14.832031 C 7.546875 14.832031 7.613281 14.832031 7.683594 14.832031 C 7.816406 14.832031 7.949219 14.832031 8.078125 14.832031 C 8.015625 14.910156 7.949219 14.984375 7.875 15.054688 C 7.867188 15.0625 7.855469 15.074219 7.84375 15.085938 C 7.8125 15.117188 7.777344 15.152344 7.742188 15.1875 C 7.71875 15.210938 7.695312 15.234375 7.671875 15.257812 C 7.613281 15.316406 7.550781 15.378906 7.488281 15.441406 C 7.425781 15.503906 7.363281 15.566406 7.296875 15.628906 C 7.175781 15.753906 7.050781 15.875 6.929688 16 C 6.992188 16.078125 7.058594 16.152344 7.128906 16.226562 C 7.136719 16.234375 7.148438 16.246094 7.15625 16.257812 C 7.25 16.355469 7.347656 16.453125 7.445312 16.546875 C 7.472656 16.578125 7.503906 16.609375 7.535156 16.640625 C 7.597656 16.703125 7.660156 16.765625 7.726562 16.828125 C 7.800781 16.90625 7.875 16.980469 7.949219 17.054688 C 7.980469 17.082031 8.011719 17.113281 8.039062 17.144531 C 8.058594 17.160156 8.078125 17.179688 8.09375 17.195312 C 8.101562 17.203125 8.109375 17.214844 8.121094 17.222656 C 8.140625 17.242188 8.15625 17.261719 8.175781 17.28125 C 8.175781 17.285156 8.175781 17.289062 8.175781 17.296875 C 8.015625 17.324219 7.855469 17.34375 7.691406 17.355469 C 7.675781 17.355469 7.675781 17.355469 7.65625 17.359375 C 7.332031 17.378906 7.085938 17.332031 6.835938 17.113281 C 6.734375 17.019531 6.636719 16.917969 6.539062 16.816406 C 6.53125 16.804688 6.519531 16.792969 6.507812 16.78125 C 6.375 16.636719 6.253906 16.488281 6.128906 16.335938 C 6.121094 16.65625 6.117188 16.980469 6.113281 17.3125 C 5.832031 17.3125 5.550781 17.3125 5.265625 17.3125 C 5.265625 15.9375 5.265625 14.566406 5.265625 13.152344 Z M 5.265625 13.152344 "/>
<path style=" stroke:none;fill-rule:nonzero;fill:rgb(29.411766%,74.509805%,48.627451%);fill-opacity:1;" d="M 17.632812 13.152344 C 17.910156 13.152344 18.191406 13.152344 18.480469 13.152344 C 18.480469 14.523438 18.480469 15.898438 18.480469 17.3125 C 18.199219 17.3125 17.921875 17.3125 17.632812 17.3125 C 17.632812 15.9375 17.632812 14.566406 17.632812 13.152344 Z M 17.632812 13.152344 "/>
<path style=" stroke:none;fill-rule:nonzero;fill:rgb(25.882354%,72.549021%,50.980395%);fill-opacity:1;" d="M 16.175781 14.832031 C 16.457031 14.832031 16.734375 14.832031 17.023438 14.832031 C 17.023438 15.644531 17.023438 16.457031 17.023438 17.296875 C 16.746094 17.296875 16.464844 17.296875 16.175781 17.296875 C 16.175781 16.484375 16.175781 15.667969 16.175781 14.832031 Z M 16.175781 14.832031 "/>
<path style=" stroke:none;fill-rule:nonzero;fill:rgb(99.215686%,99.607843%,99.607843%);fill-opacity:1;" d="M 9.90625 15.589844 C 10.015625 15.679688 10.089844 15.800781 10.128906 15.9375 C 10.144531 16.125 10.125 16.277344 10.015625 16.433594 C 10.007812 16.445312 10 16.460938 9.988281 16.472656 C 9.882812 16.585938 9.742188 16.644531 9.589844 16.648438 C 9.4375 16.648438 9.328125 16.632812 9.199219 16.542969 C 9.183594 16.535156 9.183594 16.535156 9.167969 16.523438 C 9.070312 16.453125 9.007812 16.328125 8.984375 16.210938 C 8.957031 16.019531 8.976562 15.859375 9.089844 15.699219 C 9.292969 15.460938 9.648438 15.417969 9.90625 15.589844 Z M 9.90625 15.589844 "/>
<path style=" stroke:none;fill-rule:nonzero;fill:rgb(99.607843%,99.607843%,99.607843%);fill-opacity:1;" d="M 24.128906 15.617188 C 24.242188 15.714844 24.308594 15.816406 24.324219 15.96875 C 24.335938 16.167969 24.320312 16.320312 24.183594 16.480469 C 24.171875 16.492188 24.15625 16.5 24.144531 16.511719 C 24.132812 16.523438 24.121094 16.535156 24.109375 16.546875 C 23.996094 16.621094 23.894531 16.652344 23.761719 16.648438 C 23.746094 16.648438 23.734375 16.648438 23.71875 16.648438 C 23.566406 16.640625 23.453125 16.601562 23.339844 16.496094 C 23.203125 16.34375 23.171875 16.183594 23.179688 15.984375 C 23.191406 15.816406 23.273438 15.710938 23.390625 15.601562 C 23.601562 15.421875 23.921875 15.453125 24.128906 15.617188 Z M 24.128906 15.617188 "/>
<path style=" stroke:none;fill-rule:nonzero;fill:rgb(99.607843%,99.607843%,99.607843%);fill-opacity:1;" d="M 20.710938 15.59375 C 20.820312 15.683594 20.914062 15.808594 20.929688 15.953125 C 20.941406 16.152344 20.921875 16.308594 20.796875 16.46875 C 20.691406 16.578125 20.582031 16.636719 20.429688 16.644531 C 20.234375 16.652344 20.09375 16.625 19.941406 16.492188 C 19.796875 16.324219 19.777344 16.171875 19.789062 15.957031 C 19.800781 15.800781 19.898438 15.695312 20.011719 15.59375 C 20.023438 15.585938 20.035156 15.578125 20.046875 15.566406 C 20.058594 15.558594 20.070312 15.550781 20.082031 15.542969 C 20.285156 15.445312 20.523438 15.46875 20.710938 15.59375 Z M 20.710938 15.59375 "/>
<path style=" stroke:none;fill-rule:nonzero;fill:rgb(47.843137%,83.92157%,35.686275%);fill-opacity:1;" d="M 26.449219 16.335938 C 26.464844 16.34375 26.480469 16.355469 26.496094 16.363281 C 26.613281 16.453125 26.703125 16.558594 26.734375 16.703125 C 26.757812 16.875 26.742188 17.007812 26.640625 17.152344 C 26.554688 17.257812 26.441406 17.351562 26.304688 17.375 C 26.164062 17.386719 26.042969 17.390625 25.921875 17.3125 C 25.902344 17.300781 25.902344 17.300781 25.886719 17.289062 C 25.777344 17.214844 25.671875 17.097656 25.644531 16.96875 C 25.613281 16.785156 25.632812 16.644531 25.738281 16.492188 C 25.914062 16.277344 26.199219 16.191406 26.449219 16.335938 Z M 26.449219 16.335938 "/>
<path style=" stroke:none;fill-rule:nonzero;fill:rgb(26.666668%,72.941178%,51.372552%);fill-opacity:1;" d="M 16.847656 13.355469 C 16.96875 13.429688 17.070312 13.539062 17.109375 13.679688 C 17.132812 13.828125 17.117188 13.949219 17.042969 14.082031 C 17.03125 14.097656 17.019531 14.113281 17.007812 14.128906 C 17 14.136719 16.992188 14.144531 16.984375 14.15625 C 16.898438 14.253906 16.785156 14.308594 16.65625 14.328125 C 16.496094 14.332031 16.386719 14.289062 16.265625 14.1875 C 16.148438 14.078125 16.109375 13.964844 16.105469 13.804688 C 16.105469 13.695312 16.128906 13.613281 16.191406 13.519531 C 16.203125 13.503906 16.214844 13.484375 16.226562 13.46875 C 16.394531 13.304688 16.632812 13.253906 16.847656 13.355469 Z M 16.847656 13.355469 "/>
</g>
</svg>
